<svg width="15" height="15" viewBox="0 0 15 15" fill="none" xmlns="http://www.w3.org/2000/svg">
<path d="M13.2422 1.99219H1.75781C0.788555 1.99219 0 2.78074 0 3.75V11.25C0 12.2193 0.788555 13.0078 1.75781 13.0078H13.2422C14.2114 13.0078 15 12.2193 15 11.25V3.75C15 2.78074 14.2114 1.99219 13.2422 1.99219ZM13.8281 11.25C13.8281 11.5731 13.5653 11.8359 13.2422 11.8359H1.75781C1.43473 11.8359 1.17188 11.5731 1.17188 11.25V3.75C1.17188 3.42691 1.43473 3.16406 1.75781 3.16406H13.2422C13.5653 3.16406 13.8281 3.42691 13.8281 3.75V11.25Z" fill="#B0B0B0"/>
<path d="M13.728 2.72266L7.49936 7.35557L1.27072 2.72266L0.571289 3.66294L7.49936 8.81607L14.4274 3.66294L13.728 2.72266Z" fill="#B0B0B0"/>
</svg>
