<?xml version="1.0" encoding="utf-8"?>
<!-- Generator: Adobe Illustrator 23.0.3, SVG Export Plug-In . SVG Version: 6.00 Build 0)  -->
<svg version="1.1" id="Layer_1" xmlns="http://www.w3.org/2000/svg" xmlns:xlink="http://www.w3.org/1999/xlink" x="0px" y="0px"
	 width="30px" height="30px" viewBox="0 0 30 30" style="enable-background:new 0 0 30 30;" xml:space="preserve">
<style type="text/css">
	.st0{fill:#444444;}
	.st1{fill:#FFFFFF;}
	.st2{fill-rule:evenodd;clip-rule:evenodd;fill:none;stroke:#FFFFFF;stroke-width:0.8;stroke-miterlimit:22.9256;}
	.st3{fill-rule:evenodd;clip-rule:evenodd;fill:none;stroke:#FFFFFF;stroke-width:0.5;stroke-miterlimit:22.9256;}
	.st4{fill-rule:evenodd;clip-rule:evenodd;fill:#FFFFFF;}
	.st5{fill-rule:evenodd;clip-rule:evenodd;fill:none;stroke:#FCFCFC;stroke-width:0.8;stroke-miterlimit:22.9256;}
	.st6{fill:none;stroke:#FFFFFF;stroke-linecap:round;stroke-linejoin:round;stroke-miterlimit:10;}
	.st7{fill:none;stroke:#FFFFFF;stroke-width:0.8;stroke-linecap:round;stroke-linejoin:round;stroke-miterlimit:10;}
</style>
<g>
	<g transform="translate(-1566 -464)">
		<g>
			<g>
				<path id="ezq6a" class="st0" d="M1566,479c0-8.3,6.7-15,15-15s15,6.7,15,15s-6.7,15-15,15S1566,487.3,1566,479z"/>
			</g>
		</g>
	</g>
</g>
<g>
	<polyline class="st7" points="13,14.3 9.6,10.8 8.8,10.3 7.8,9 8.8,8 10,8.8 10.6,9.8 14.1,13.3 	"/>
	<path class="st7" d="M15.2,18.1c0.1,0.2,0.1,0.3,0.1,0.3l4.1,4.2c0,0,2.2-0.2,3-2.9l-4-4c0,0-0.2-0.1-0.5-0.3"/>
	<path class="st7" d="M13.1,19.4l5.3-5.3c1,0.3,2,0,2.8-0.7c0.9-0.9,1.1-2.1,0.6-3.2l-1.7,1.7c-0.2,0.2-0.6,0.2-0.9,0l-0.5-0.5
		c-0.2-0.2-0.2-0.6,0-0.9l1.8-1.8c-1.1-0.5-2.4-0.3-3.2,0.6c-0.7,0.7-1,1.8-0.7,2.8l-5.3,5.3c-1-0.3-2,0-2.8,0.7
		c-0.9,0.9-1.1,2.1-0.6,3.2l1.7-1.7c0.2-0.2,0.6-0.2,0.9,0l0.5,0.5c0.2,0.2,0.2,0.6,0,0.9l-1.8,1.8c1.1,0.5,2.4,0.3,3.2-0.6
		C13.1,21.5,13.4,20.4,13.1,19.4z"/>
	<line class="st7" x1="17.3" y1="19" x2="20.2" y2="21.8"/>
	<line class="st7" x1="17.1" y1="17.4" x2="21" y2="21.3"/>
	<line class="st7" x1="18.8" y1="17.6" x2="21.6" y2="20.4"/>
</g>
</svg>
