<?xml version="1.0" encoding="utf-8"?>
<!-- Generator: Adobe Illustrator 23.0.3, SVG Export Plug-In . SVG Version: 6.00 Build 0)  -->
<svg version="1.1" id="Layer_1" xmlns="http://www.w3.org/2000/svg" xmlns:xlink="http://www.w3.org/1999/xlink" x="0px" y="0px"
	 width="30px" height="30px" viewBox="0 0 30 30" style="enable-background:new 0 0 30 30;" xml:space="preserve">
<style type="text/css">
	.st0{fill:#444444;}
	.st1{fill:#FFFFFF;}
	.st2{fill-rule:evenodd;clip-rule:evenodd;fill:none;stroke:#FFFFFF;stroke-width:0.8;stroke-miterlimit:22.9256;}
	.st3{fill-rule:evenodd;clip-rule:evenodd;fill:none;stroke:#FFFFFF;stroke-width:0.5;stroke-miterlimit:22.9256;}
	.st4{fill-rule:evenodd;clip-rule:evenodd;fill:#FFFFFF;}
	.st5{fill-rule:evenodd;clip-rule:evenodd;fill:none;stroke:#FCFCFC;stroke-width:0.8;stroke-miterlimit:22.9256;}
</style>
<g>
	<g transform="translate(-1566 -464)">
		<g>
			<g>
				<path id="ezq6a" class="st0" d="M1566,479c0-8.3,6.7-15,15-15s15,6.7,15,15s-6.7,15-15,15S1566,487.3,1566,479z"/>
			</g>
		</g>
	</g>
</g>
<path class="st2" d="M16.1,19.5l0,0.8c0,0.2,0.1,0.3,0.3,0.3h2.3c0.2,0,0.3-0.1,0.3-0.3c0-1.2,0-1.6,0-4.2c0-0.4-0.1-0.8-0.3-1.1
	l-0.4-0.4l0.9-0.4c0.1,0,0.1-0.1,0.1-0.1l-0.1-0.5c0-0.2-0.2-0.3-0.4-0.3h-1.5L16,11.8c-0.1-0.1-0.2-0.2-0.5-0.3
	c-2.9-0.2-4.2-0.2-7.1,0c-0.3,0-0.4,0.2-0.5,0.3l-1.3,1.6H5.1c-0.2,0-0.4,0.1-0.4,0.3l-0.1,0.5c0,0.1,0,0.1,0.1,0.1l0.9,0.4
	l-0.4,0.4c-0.2,0.3-0.3,0.6-0.3,1.1c0,2.6,0,3,0,4.2c0,0.2,0.1,0.3,0.3,0.3h2.3c0.2,0,0.3-0.1,0.3-0.3l0-0.8
	C10.7,19.7,13.4,19.7,16.1,19.5L16.1,19.5z M5.9,16L8,16.3 M18,16l-2.1,0.3 M7.3,12.5c-0.5,0.6-0.5,0.8-0.5,1.2
	c0,0.4,0.3,0.7,0.7,0.7c3,0.1,5.9,0.1,8.8,0c0.4,0,0.7-0.3,0.7-0.7c0-0.3,0-0.6-0.5-1.2 M19.7,16.1c1,0,2,0,3-0.1l0,0.7
	c0,0.1,0.1,0.3,0.3,0.3h1.9c0.1,0,0.3-0.1,0.3-0.3c0-1,0-1.3,0-3.4c0-0.4-0.1-0.6-0.3-0.9l-0.3-0.3l0.7-0.3c0.1,0,0.1,0,0.1-0.1
	l-0.1-0.4c0-0.1-0.2-0.2-0.3-0.2h-1.2l-1.1-1.3c-0.1-0.1-0.2-0.2-0.4-0.2c-2.3-0.1-3.4-0.1-5.7,0c-0.2,0-0.4,0.2-0.4,0.2l-0.8,0.9
	 M24.3,13.2l-1.7,0.2 M16.9,11.9c2,0.1,4.1,0.1,6.1,0c0.3,0,0.6-0.2,0.6-0.6c0-0.3,0-0.5-0.4-0.9"/>
</svg>
