<?xml version="1.0" encoding="utf-8"?>
<!-- Generator: Adobe Illustrator 23.0.3, SVG Export Plug-In . SVG Version: 6.00 Build 0)  -->
<svg version="1.1" id="Layer_1" xmlns="http://www.w3.org/2000/svg" xmlns:xlink="http://www.w3.org/1999/xlink" x="0px" y="0px"
	 width="30px" height="30px" viewBox="0 0 30 30" style="enable-background:new 0 0 30 30;" xml:space="preserve">
<style type="text/css">
	.st0{fill:#444444;}
	.st1{fill:#FFFFFF;}
	.st2{fill-rule:evenodd;clip-rule:evenodd;fill:none;stroke:#FFFFFF;stroke-width:0.8;stroke-miterlimit:22.9256;}
	.st3{fill-rule:evenodd;clip-rule:evenodd;fill:none;stroke:#FFFFFF;stroke-width:0.5;stroke-miterlimit:22.9256;}
	.st4{fill-rule:evenodd;clip-rule:evenodd;fill:#FFFFFF;}
	.st5{fill-rule:evenodd;clip-rule:evenodd;fill:none;stroke:#FCFCFC;stroke-width:0.8;stroke-miterlimit:22.9256;}
</style>
<g>
	<g transform="translate(-1566 -464)">
		<g>
			<g>
				<path id="ezq6a" class="st0" d="M1566,479c0-8.3,6.7-15,15-15s15,6.7,15,15s-6.7,15-15,15S1566,487.3,1566,479z"/>
			</g>
		</g>
	</g>
</g>
<path class="st2" d="M13.9,16.4v0.8l0.1,0.4V22c0,0.1,0,0.2,0.1,0.2l0.9,0.4l0,0v-5.1 M15,22.7l0.9-0.4C16,22.2,16,22.1,16,22v-4.5
	l0.1-0.4v-0.8 M18,8.4v6.5c0,0.6-0.5,1-1,1H13c-0.6,0-1-0.5-1-1V8.4c0-0.6,0.4-1,1-1H17C17.6,7.4,18,7.8,18,8.4L18,8.4z M17.1,14.3
	c0,0.3-0.3,0.6-0.6,0.6c-0.3,0-0.6-0.3-0.6-0.6c0-0.3,0.3-0.6,0.6-0.6C16.9,13.7,17.1,14,17.1,14.3L17.1,14.3z M16.4,8.7
	c0,0.9,0,1.7,0,2.6c0,0.2-0.2,0.4-0.4,0.4h-2.1c-0.2,0-0.4-0.2-0.4-0.4c0-0.9,0-1.7,0-2.6c0-0.2,0.2-0.4,0.4-0.4h2.1
	C16.3,8.3,16.4,8.5,16.4,8.7L16.4,8.7z M16.4,10h-2.9"/>
</svg>
