<?xml version="1.0" encoding="utf-8"?>
<!-- Generator: Adobe Illustrator 23.0.3, SVG Export Plug-In . SVG Version: 6.00 Build 0)  -->
<svg version="1.1" id="Layer_1" xmlns="http://www.w3.org/2000/svg" xmlns:xlink="http://www.w3.org/1999/xlink" x="0px" y="0px"
	 width="30px" height="30px" viewBox="0 0 30 30" style="enable-background:new 0 0 30 30;" xml:space="preserve">
<style type="text/css">
	.st0{fill:#444444;}
	.st1{fill:#FFFFFF;}
	.st2{fill-rule:evenodd;clip-rule:evenodd;fill:none;stroke:#FFFFFF;stroke-width:0.8;stroke-miterlimit:22.9256;}
	.st3{fill-rule:evenodd;clip-rule:evenodd;fill:none;stroke:#FFFFFF;stroke-width:0.5;stroke-miterlimit:22.9256;}
	.st4{fill-rule:evenodd;clip-rule:evenodd;fill:#FFFFFF;}
	.st5{fill-rule:evenodd;clip-rule:evenodd;fill:none;stroke:#FCFCFC;stroke-width:0.8;stroke-miterlimit:22.9256;}
	.st6{fill:none;stroke:#FFFFFF;stroke-linecap:round;stroke-linejoin:round;stroke-miterlimit:10;}
	.st7{fill:none;stroke:#FFFFFF;stroke-width:0.5;stroke-linecap:round;stroke-linejoin:round;stroke-miterlimit:10;}
</style>
<g>
	<g transform="translate(-1566 -464)">
		<g>
			<g>
				<path id="ezq6a" class="st0" d="M1566,479c0-8.3,6.7-15,15-15s15,6.7,15,15s-6.7,15-15,15S1566,487.3,1566,479z"/>
			</g>
		</g>
	</g>
</g>
<g>
	<g>
		<g>
			<path class="st1" d="M16,25.7c-0.6,0-1.3-0.2-1.9-0.5c-0.9-0.5-1.6-1.3-1.9-2.4c-0.3-1-0.2-2.1,0.3-3c1-1.9,3.4-2.7,5.4-1.6l0,0
				c1.9,1,2.7,3.4,1.6,5.4c-0.5,0.9-1.3,1.6-2.4,1.9C16.7,25.7,16.4,25.7,16,25.7z M16,18.5c-1.2,0-2.3,0.6-2.9,1.7
				c-0.4,0.8-0.5,1.7-0.2,2.5c0.3,0.8,0.8,1.5,1.6,1.9c0.8,0.4,1.7,0.5,2.5,0.2c0.8-0.3,1.5-0.8,1.9-1.6c0.8-1.6,0.2-3.6-1.3-4.4
				l0,0C17,18.6,16.5,18.5,16,18.5z"/>
		</g>
		<g>
			<path class="st1" d="M16,23.9c-0.3,0-0.7-0.1-1-0.3c-0.5-0.3-0.9-0.7-1-1.3c-0.2-0.5-0.1-1.1,0.2-1.6c0.6-1,1.9-1.4,2.9-0.9
				c0,0,0,0,0,0c0.5,0.3,0.9,0.7,1,1.3c0.2,0.5,0.1,1.1-0.2,1.6c-0.3,0.5-0.7,0.9-1.3,1C16.4,23.9,16.2,23.9,16,23.9z M16,20.3
				c-0.5,0-1,0.3-1.3,0.8c-0.2,0.3-0.2,0.7-0.1,1.1c0.1,0.4,0.4,0.7,0.7,0.8c0.3,0.2,0.7,0.2,1.1,0.1c0.4-0.1,0.7-0.4,0.8-0.7
				c0.2-0.3,0.2-0.7,0.1-1.1c-0.1-0.4-0.4-0.7-0.7-0.8C16.4,20.4,16.2,20.3,16,20.3z"/>
		</g>
	</g>
	<g>
		<g>
			<path class="st1" d="M21.3,17.2c-0.4,0-0.8-0.1-1.2-0.3c-1.3-0.7-1.8-2.3-1.1-3.6c0.7-1.3,2.3-1.8,3.6-1.1v0
				c0.6,0.3,1.1,0.9,1.3,1.6c0.2,0.7,0.1,1.4-0.2,2C23.1,16.7,22.2,17.2,21.3,17.2z M21.3,12.6c-0.7,0-1.4,0.4-1.7,1
				c-0.5,0.9-0.1,2.1,0.8,2.6c0.9,0.5,2.1,0.1,2.6-0.8c0.2-0.5,0.3-1,0.1-1.5c-0.2-0.5-0.5-0.9-0.9-1.1l0,0
				C21.9,12.7,21.6,12.6,21.3,12.6z"/>
		</g>
		<g>
			<path class="st1" d="M21.3,16.2c-0.3,0-0.5-0.1-0.8-0.2c-0.4-0.2-0.7-0.5-0.8-1c-0.1-0.4-0.1-0.9,0.1-1.2
				c0.4-0.8,1.4-1.1,2.2-0.7c0.8,0.4,1.1,1.4,0.7,2.2C22.4,15.8,21.8,16.2,21.3,16.2z M21.3,13.6c-0.3,0-0.6,0.2-0.8,0.5
				c-0.1,0.2-0.1,0.5-0.1,0.7c0.1,0.2,0.2,0.4,0.4,0.5c0.4,0.2,1,0.1,1.2-0.4c0.2-0.4,0.1-1-0.4-1.2l0,0
				C21.6,13.6,21.4,13.6,21.3,13.6z"/>
		</g>
	</g>
	<g>
		<g>
			<path class="st1" d="M11.6,11.6c-0.4,0-0.8-0.1-1.2-0.3C9.1,10.6,8.6,9,9.3,7.7c0.7-1.3,2.3-1.8,3.6-1.1c0.6,0.3,1.1,0.9,1.3,1.6
				c0.2,0.7,0.1,1.4-0.2,2C13.5,11.1,12.5,11.6,11.6,11.6z M11.6,7c-0.7,0-1.4,0.4-1.7,1c-0.5,0.9-0.1,2.1,0.8,2.6
				c0.9,0.5,2.1,0.1,2.6-0.8c0.2-0.5,0.3-1,0.1-1.5c-0.2-0.5-0.5-0.9-0.9-1.1C12.2,7.1,11.9,7,11.6,7z"/>
		</g>
		<g>
			<path class="st1" d="M11.6,10.6c-0.3,0-0.5-0.1-0.8-0.2c-0.4-0.2-0.7-0.5-0.8-1C9.9,9,10,8.6,10.2,8.2c0.4-0.8,1.4-1.1,2.2-0.7
				c0,0,0,0,0,0c0.8,0.4,1.1,1.4,0.7,2.2c-0.2,0.4-0.5,0.7-1,0.8C11.9,10.6,11.8,10.6,11.6,10.6z M11.6,8c-0.3,0-0.6,0.2-0.8,0.5
				c-0.1,0.2-0.1,0.5-0.1,0.7c0.1,0.2,0.2,0.4,0.4,0.5c0.2,0.1,0.5,0.1,0.7,0.1c0.2-0.1,0.4-0.2,0.5-0.4c0.2-0.4,0.1-1-0.4-1.2l0,0
				C11.9,8.1,11.8,8,11.6,8z"/>
		</g>
		<g>
			<path class="st1" d="M14.6,16.7c-0.3,0-0.5-0.1-0.8-0.2c-0.4-0.2-0.7-0.5-0.8-1c-0.1-0.4-0.1-0.9,0.1-1.2
				c0.4-0.8,1.4-1.1,2.2-0.7c0,0,0,0,0,0c0.8,0.4,1.1,1.4,0.7,2.2C15.7,16.4,15.2,16.7,14.6,16.7z M14.6,14.1
				c-0.3,0-0.6,0.2-0.8,0.5c-0.1,0.2-0.1,0.5-0.1,0.7c0.1,0.2,0.2,0.4,0.4,0.5c0.4,0.2,1,0.1,1.2-0.4c0.2-0.4,0.1-1-0.4-1.2v0
				C14.9,14.2,14.7,14.1,14.6,14.1z"/>
		</g>
		<g>
			<path class="st1" d="M22.3,12.9c-0.1,0-0.1,0-0.2,0l-9.7-5.6c-0.2-0.1-0.2-0.3-0.1-0.5c0.1-0.2,0.3-0.2,0.5-0.1l9.7,5.6
				c0.2,0.1,0.2,0.3,0.1,0.5C22.6,12.8,22.5,12.9,22.3,12.9z"/>
		</g>
	</g>
	<g>
		<path class="st1" d="M15.2,14.3c-0.1,0-0.1,0-0.2-0.1l-4.7-3c-0.2-0.1-0.2-0.3-0.1-0.5c0.1-0.2,0.3-0.2,0.5-0.1l4.7,3
			c0.2,0.1,0.2,0.3,0.1,0.5C15.4,14.2,15.3,14.3,15.2,14.3z"/>
	</g>
	<g>
		<path class="st1" d="M12.8,20.4c-0.1,0-0.1,0-0.2-0.1c-0.2-0.1-0.2-0.3-0.1-0.5l2.9-4.4c0.1-0.2,0.3-0.2,0.5-0.1
			c0.2,0.1,0.2,0.3,0.1,0.5l-2.9,4.4C13,20.4,12.9,20.4,12.8,20.4z"/>
	</g>
	<g>
		<path class="st1" d="M19.2,23.8c-0.1,0-0.1,0-0.2,0c-0.2-0.1-0.2-0.3-0.1-0.5l4.1-7.9c0.1-0.2,0.3-0.2,0.5-0.1
			c0.2,0.1,0.2,0.3,0.1,0.5l-4.1,7.9C19.4,23.8,19.3,23.8,19.2,23.8z"/>
	</g>
</g>
</svg>
