<?xml version="1.0" encoding="utf-8"?>
<!-- Generator: Adobe Illustrator 23.0.3, SVG Export Plug-In . SVG Version: 6.00 Build 0)  -->
<svg version="1.1" id="Layer_1" xmlns="http://www.w3.org/2000/svg" xmlns:xlink="http://www.w3.org/1999/xlink" x="0px" y="0px"
	 width="30px" height="30px" viewBox="0 0 30 30" style="enable-background:new 0 0 30 30;" xml:space="preserve">
<style type="text/css">
	.st0{fill:#444444;}
	.st1{fill:#FFFFFF;}
	.st2{fill-rule:evenodd;clip-rule:evenodd;fill:none;stroke:#FFFFFF;stroke-width:0.4;stroke-miterlimit:22.9256;}
	.st3{fill-rule:evenodd;clip-rule:evenodd;fill:none;stroke:#FFFFFF;stroke-width:0.5;stroke-miterlimit:22.9256;}
	.st4{fill-rule:evenodd;clip-rule:evenodd;fill:#FFFFFF;}
	.st5{fill-rule:evenodd;clip-rule:evenodd;fill:none;stroke:#FCFCFC;stroke-width:0.8;stroke-miterlimit:22.9256;}
</style>
<g>
	<g transform="translate(-1566 -464)">
		<g>
			<g>
				<path id="ezq6a" class="st0" d="M1566,479c0-8.3,6.7-15,15-15s15,6.7,15,15s-6.7,15-15,15S1566,487.3,1566,479z"/>
			</g>
		</g>
	</g>
</g>
<path class="st5" d="M8.5,12.1c0,0.5,0.4,0.8,0.9,0.8c3.7,0.2,7.5,0.2,11.2,0c0.5,0,0.9-0.3,0.9-0.8 M22.3,15.1l-2.5,0.3 M7.7,15.1
	l2.5,0.3 M20.7,19.2l0,1c0,0.2,0.2,0.4,0.4,0.4h2c0.2,0,0.4-0.2,0.4-0.4c0-1.4,0-1.9,0-5c0-0.5-0.1-0.9-0.4-1.3l-0.4-0.5l1-0.5
	c0.1,0,0.1-0.1,0.1-0.1l-0.2-0.6c-0.1-0.2-0.3-0.4-0.5-0.4h-1.8L20.1,10c-0.1-0.1-0.3-0.3-0.6-0.3c-3.4-0.2-5.7-0.2-9.1,0
	c-0.3,0-0.5,0.2-0.6,0.3l-1.2,1.9H6.9c-0.2,0-0.4,0.2-0.5,0.4l-0.2,0.6c0,0.1,0,0.1,0.1,0.1l1,0.5l-0.4,0.5
	c-0.3,0.3-0.4,0.7-0.4,1.3c0,3.1,0,3.6,0,5c0,0.2,0.2,0.4,0.4,0.4h2c0.2,0,0.4-0.2,0.4-0.4l0-1C12.6,19.3,17.5,19.3,20.7,19.2
	L20.7,19.2z M10.1,19.2L7.5,19l-1-1.3 M19.9,19.2l2.6-0.2l1-1.3 M11,15.7c2.8,0.1,5.1,0.1,7.9,0l-0.2,1.5c-2.4,0.3-5.1,0.3-7.5,0
	L11,15.7z"/>
</svg>
