<?xml version="1.0" encoding="utf-8"?>
<!-- Generator: Adobe Illustrator 23.0.3, SVG Export Plug-In . SVG Version: 6.00 Build 0)  -->
<svg version="1.1" id="Layer_1" xmlns="http://www.w3.org/2000/svg" xmlns:xlink="http://www.w3.org/1999/xlink" x="0px" y="0px"
	 width="30px" height="30px" viewBox="0 0 30 30" style="enable-background:new 0 0 30 30;" xml:space="preserve">
<style type="text/css">
	.st0{fill:#444444;}
	.st1{fill:#FFFFFF;}
	.st2{fill-rule:evenodd;clip-rule:evenodd;fill:none;stroke:#FFFFFF;stroke-width:0.8;stroke-miterlimit:22.9256;}
	.st3{fill-rule:evenodd;clip-rule:evenodd;fill:none;stroke:#FFFFFF;stroke-width:0.5;stroke-miterlimit:22.9256;}
	.st4{fill-rule:evenodd;clip-rule:evenodd;fill:#FFFFFF;}
	.st5{fill-rule:evenodd;clip-rule:evenodd;fill:none;stroke:#FCFCFC;stroke-width:0.8;stroke-miterlimit:22.9256;}
	.st6{fill:none;stroke:#FFFFFF;stroke-linecap:round;stroke-linejoin:round;stroke-miterlimit:10;}
</style>
<g>
	<g transform="translate(-1566 -464)">
		<g>
			<g>
				<path id="ezq6a" class="st0" d="M1566,479c0-8.3,6.7-15,15-15s15,6.7,15,15s-6.7,15-15,15S1566,487.3,1566,479z"/>
			</g>
		</g>
	</g>
</g>
<g>
	<path class="st6" d="M15.7,15.7c-1.9,0-3.4-1.5-3.4-3.4c0-1.9,1.5-3.4,3.4-3.4c1.9,0,3.4,1.5,3.4,3.4C19,14.1,17.5,15.7,15.7,15.7z
		"/>
	<path class="st6" d="M15.7,18.7c-1.5-1.2-2.8-1.8-4.6-1.9c-0.1-1.8-0.7-3.1-1.9-4.6c1.2-1.5,1.8-2.8,1.9-4.6
		c1.8-0.1,3.1-0.7,4.6-1.9c1.5,1.2,2.8,1.8,4.6,1.9c0.1,1.8,0.7,3.1,1.9,4.6c-1.2,1.5-1.8,2.8-1.9,4.6C18.4,17,17.1,17.6,15.7,18.7z
		"/>
	<polyline class="st6" points="15.3,18.4 13.2,25.2 10.1,24.2 12.4,17 	"/>
	<polyline class="st6" points="16,18.4 18.2,25.2 21.2,24.2 18.9,17 	"/>
</g>
</svg>
