<svg width="20" height="20" viewBox="0 0 20 20" fill="none" xmlns="http://www.w3.org/2000/svg">
<path fill-rule="evenodd" clip-rule="evenodd" d="M5.04953 4.05011C6.36235 2.73729 8.14292 1.99976 9.99953 1.99976C11.8561 1.99976 13.6367 2.73729 14.9495 4.05011C16.2623 5.36293 16.9999 7.1435 16.9999 9.00011C16.9999 10.8567 16.2623 12.6373 14.9495 13.9501L9.99953 18.9001L5.04953 13.9501C4.39944 13.3001 3.88376 12.5284 3.53193 11.6791C3.18011 10.8297 2.99902 9.91943 2.99902 9.00011C2.99902 8.0808 3.18011 7.17049 3.53193 6.32116C3.88376 5.47184 4.39944 4.70013 5.04953 4.05011ZM9.99953 11.0001C10.53 11.0001 11.0387 10.7894 11.4137 10.4143C11.7888 10.0393 11.9995 9.53055 11.9995 9.00011C11.9995 8.46968 11.7888 7.96097 11.4137 7.5859C11.0387 7.21083 10.53 7.00011 9.99953 7.00011C9.4691 7.00011 8.96039 7.21083 8.58532 7.5859C8.21024 7.96097 7.99953 8.46968 7.99953 9.00011C7.99953 9.53055 8.21024 10.0393 8.58532 10.4143C8.96039 10.7894 9.4691 11.0001 9.99953 11.0001Z" fill="#DD231B"/>
</svg>
