<svg width="15" height="15" viewBox="0 0 31 31" fill="none" xmlns="http://www.w3.org/2000/svg">
<path fill-rule="evenodd" clip-rule="evenodd" d="M24.5892 6.24414C22.5654 4.22031 19.8205 3.08333 16.9583 3.08333C16.5495 3.08333 16.1573 2.92091 15.8682 2.63179C15.5791 2.34267 15.4167 1.95054 15.4167 1.54167C15.4167 1.13279 15.5791 0.740662 15.8682 0.451544C16.1573 0.162425 16.5495 0 16.9583 0C20.6382 0 24.1674 1.46183 26.7694 4.06389C29.3715 6.66596 30.8333 10.1951 30.8333 13.875C30.8333 14.2839 30.6709 14.676 30.3818 14.9651C30.0927 15.2542 29.7005 15.4167 29.2917 15.4167C28.8828 15.4167 28.4907 15.2542 28.2015 14.9651C27.9124 14.676 27.75 14.2839 27.75 13.875C27.75 11.0129 26.613 8.26797 24.5892 6.24414ZM30.0226 20.7999C30.2167 20.9753 30.3631 21.1971 30.4479 21.4446C30.578 21.8105 30.676 22.1871 30.7408 22.57C30.8029 22.9575 30.8338 23.3493 30.8333 23.7417C30.8333 24.673 30.6499 25.5951 30.2935 26.4555C29.9371 27.3159 29.4148 28.0977 28.7562 28.7562C28.0977 29.4148 27.3159 29.9371 26.4555 30.2935C25.5951 30.6499 24.673 30.8333 23.7417 30.8333C17.4475 30.8252 11.4134 28.3212 6.96278 23.8705C2.51212 19.4199 0.00815837 13.3858 0 7.09167C0 5.21084 0.747156 3.40705 2.0771 2.0771C3.40705 0.747156 5.21084 0 7.09167 0C7.49147 0.0121782 7.8891 0.0638176 8.27875 0.154167C8.65694 0.21013 9.02872 0.303075 9.38875 0.431667C9.63624 0.516462 9.85808 0.662843 10.0334 0.85703C10.2087 1.05122 10.3317 1.28682 10.3908 1.54167L12.5029 10.6838C12.5598 10.9348 12.553 11.1962 12.483 11.4439C12.413 11.6917 12.282 11.9179 12.1021 12.1021C11.9129 12.3203 11.8886 12.3326 10.2407 13.1627C10.1424 13.2121 10.0385 13.2645 9.92833 13.32C11.4469 16.6513 14.1112 19.3266 17.4362 20.8587C18.4383 18.9471 18.4537 18.9317 18.6696 18.7312C18.8537 18.5513 19.08 18.4204 19.3277 18.3504C19.5755 18.2803 19.8368 18.2735 20.0879 18.3304L29.3379 20.4425C29.5928 20.5016 29.8284 20.6246 30.0226 20.7999ZM20.2286 10.6046C19.3613 9.73723 18.1849 9.24995 16.9583 9.24995C16.5494 9.24995 16.1573 9.08753 15.8681 8.79841C15.579 8.50929 15.4166 8.11716 15.4166 7.70829C15.4166 7.29941 15.579 6.90728 15.8681 6.61816C16.1573 6.32905 16.5494 6.16662 16.9583 6.16662C19.0026 6.16662 20.9633 6.97875 22.4089 8.42434C23.8545 9.86993 24.6666 11.8306 24.6666 13.875C24.6666 14.2838 24.5042 14.676 24.2151 14.9651C23.9259 15.2542 23.5338 15.4166 23.1249 15.4166C22.7161 15.4166 22.3239 15.2542 22.0348 14.9651C21.7457 14.676 21.5833 14.2838 21.5833 13.875C21.5833 12.6483 21.096 11.4719 20.2286 10.6046Z" fill="#B0B0B0"/>
</svg>
