<svg width="15" height="15" viewBox="0 0 15 15" fill="none" xmlns="http://www.w3.org/2000/svg">
<path d="M10.8398 10.7227C11.1634 10.7227 11.4258 10.4603 11.4258 10.1367C11.4258 9.81311 11.1634 9.55078 10.8398 9.55078C10.5162 9.55078 10.2539 9.81311 10.2539 10.1367C10.2539 10.4603 10.5162 10.7227 10.8398 10.7227Z" fill="#B0B0B0"/>
<path d="M13.4766 10.6055C13.8002 10.6055 14.0625 10.3431 14.0625 10.0195V7.85156C14.0625 6.55922 13.0111 5.50781 11.7188 5.50781H11.0145V3.44139C11.0145 1.5438 9.43743 0 7.49892 0C5.5604 0 3.98329 1.5438 3.98329 3.44139V5.50781H3.28125C1.98891 5.50781 0.9375 6.55922 0.9375 7.85156V12.6562C0.9375 13.9486 1.98891 15 3.28125 15H11.7188C13.0111 15 14.0625 13.9486 14.0625 12.6562C14.0625 12.3326 13.8002 12.0703 13.4766 12.0703C13.1529 12.0703 12.8906 12.3326 12.8906 12.6562C12.8906 13.3024 12.3649 13.8281 11.7188 13.8281H3.28125C2.63508 13.8281 2.10938 13.3024 2.10938 12.6562V7.85156C2.10938 7.20539 2.63508 6.67969 3.28125 6.67969H11.7188C12.3649 6.67969 12.8906 7.20539 12.8906 7.85156V10.0195C12.8906 10.3431 13.1529 10.6055 13.4766 10.6055ZM9.84267 5.50781H5.15517V3.44139C5.15517 2.18997 6.20657 1.17188 7.49892 1.17188C8.79126 1.17188 9.84267 2.18997 9.84267 3.44139V5.50781Z" fill="#B0B0B0"/>
<path d="M6.41602 10.7227C6.73962 10.7227 7.00195 10.4603 7.00195 10.1367C7.00195 9.81311 6.73962 9.55078 6.41602 9.55078C6.09241 9.55078 5.83008 9.81311 5.83008 10.1367C5.83008 10.4603 6.09241 10.7227 6.41602 10.7227Z" fill="#B0B0B0"/>
<path d="M4.21875 10.7227C4.54235 10.7227 4.80469 10.4603 4.80469 10.1367C4.80469 9.81311 4.54235 9.55078 4.21875 9.55078C3.89515 9.55078 3.63281 9.81311 3.63281 10.1367C3.63281 10.4603 3.89515 10.7227 4.21875 10.7227Z" fill="#B0B0B0"/>
<path d="M8.61328 10.7227C8.93689 10.7227 9.19922 10.4603 9.19922 10.1367C9.19922 9.81311 8.93689 9.55078 8.61328 9.55078C8.28968 9.55078 8.02734 9.81311 8.02734 10.1367C8.02734 10.4603 8.28968 10.7227 8.61328 10.7227Z" fill="#B0B0B0"/>
</svg>
