<svg width="15" height="15" viewBox="0 0 15 15" fill="none" xmlns="http://www.w3.org/2000/svg">
<g clip-path="url(#clip0)">
<path d="M7.5002 8.44922C12.0071 8.44922 14.4893 10.5813 14.4893 14.4529C14.4893 14.7553 14.2442 15.0003 13.9418 15.0003H1.05861C0.756234 15.0003 0.511166 14.7553 0.511166 14.4529C0.511137 10.5815 2.99325 8.44922 7.5002 8.44922ZM13.3745 13.9055C13.1591 11.0107 11.1856 9.54413 7.5002 9.54413C3.8148 9.54413 1.84124 11.0107 1.62574 13.9055H13.3745Z" fill="#919191"/>
<path d="M7.50046 0C9.57072 0 11.1318 1.59252 11.1318 3.70421C11.1318 5.87774 9.50281 7.64581 7.50046 7.64581C5.4981 7.64581 3.86908 5.87774 3.86908 3.70438C3.86908 1.59252 5.43019 0 7.50046 0ZM7.50046 6.5511C8.89918 6.5511 10.037 5.27408 10.037 3.70438C10.037 2.19234 8.97016 1.09488 7.50046 1.09488C6.05427 1.09488 4.96396 2.2166 4.96396 3.70438C4.96396 5.27408 6.10173 6.5511 7.50046 6.5511Z" fill="#919191"/>
</g>
<defs>
<clipPath id="clip0">
<rect width="15" height="15" fill="white" transform="matrix(-1 0 0 1 15 0)"/>
</clipPath>
</defs>
</svg>
