<?xml version="1.0" encoding="UTF-8"?>
<svg xmlns="http://www.w3.org/2000/svg" xmlns:xlink="http://www.w3.org/1999/xlink" width="50" height="50" viewBox="0 0 50 50" version="1.1">
<g id="surface1">
<path style=" stroke:none;fill-rule:evenodd;fill:rgb(86.666667%,13.72549%,10.588235%);fill-opacity:1;" d="M 25 1.472656 C 12.011719 1.472656 1.480469 12.003906 1.480469 24.992188 C 1.476562 37.988281 12.007812 48.523438 25 48.523438 C 37.996094 48.523438 48.53125 37.988281 48.527344 24.992188 C 48.523438 12.003906 37.992188 1.472656 25 1.472656 M 25 0 C 38.804688 0 49.996094 11.1875 50 24.992188 C 50.003906 38.800781 38.808594 50 25 50 C 11.191406 50 0 38.800781 0 24.992188 C 0.00390625 11.1875 11.195312 0 25 0 "/>
<path style=" stroke:none;fill-rule:evenodd;fill:rgb(86.666667%,13.72549%,10.588235%);fill-opacity:1;" d="M 25 11.503906 C 17.550781 11.503906 11.511719 17.542969 11.507812 24.992188 C 11.507812 32.449219 17.546875 38.492188 25 38.492188 C 32.457031 38.492188 38.5 32.449219 38.496094 24.992188 C 38.492188 17.542969 32.453125 11.503906 25 11.503906 M 25 10.03125 C 33.265625 10.03125 39.96875 16.730469 39.96875 24.992188 C 39.972656 33.261719 33.269531 39.96875 25 39.964844 C 16.730469 39.96875 10.027344 33.261719 10.03125 24.992188 C 10.03125 16.726562 16.734375 10.027344 25 10.03125 "/>
<path style=" stroke:none;fill-rule:evenodd;fill:rgb(86.666667%,13.72549%,10.588235%);fill-opacity:1;" d="M 15.3125 30.613281 L 34.722656 30.613281 L 34.722656 33.390625 L 15.3125 33.390625 Z M 23.710938 12.324219 L 26.496094 12.324219 L 26.496094 26.875 L 34.722656 26.875 L 34.722656 29.652344 L 15.3125 29.652344 L 15.3125 26.875 L 23.710938 26.875 Z M 23.710938 12.324219 "/>
<path style=" stroke:none;fill-rule:evenodd;fill:rgb(86.666667%,13.72549%,10.588235%);fill-opacity:1;" d="M 13.429688 37.347656 L 14.492188 38.113281 L 12.296875 41.175781 L 14.164062 42.519531 L 13.476562 43.472656 L 10.542969 41.355469 Z M 13.429688 37.347656 "/>
<path style=" stroke:none;fill-rule:evenodd;fill:rgb(86.666667%,13.72549%,10.588235%);fill-opacity:1;" d="M 17.757812 45.742188 C 16.453125 45.285156 15.9375 44.464844 16.375 43.253906 L 17.570312 43.671875 C 17.40625 44.15625 17.472656 44.429688 18.074219 44.644531 C 18.335938 44.734375 18.832031 44.878906 18.960938 44.503906 C 19.058594 44.242188 18.601562 44.003906 18.4375 43.898438 C 17.605469 43.359375 16.578125 42.890625 17.019531 41.652344 C 17.753906 39.589844 21.402344 40.953125 20.6875 43.019531 L 20.628906 43.1875 L 19.449219 42.765625 C 19.558594 42.261719 19.5 42.046875 18.9375 41.851562 C 18.320312 41.636719 17.894531 42.0625 18.445312 42.414062 L 19.414062 43.046875 C 19.964844 43.40625 20.527344 43.917969 20.195312 44.828125 C 19.800781 45.933594 18.722656 46.089844 17.757812 45.742188 "/>
<path style=" stroke:none;fill-rule:evenodd;fill:rgb(86.666667%,13.72549%,10.588235%);fill-opacity:1;" d="M 24.953125 44.707031 L 24.605469 43.609375 L 24.257812 44.707031 Z M 25.34375 45.84375 L 23.894531 45.863281 L 23.574219 46.8125 L 22.191406 46.828125 L 23.933594 41.851562 L 25.289062 41.839844 L 27.0625 46.777344 L 25.644531 46.789062 Z M 25.34375 45.84375 "/>
<path style=" stroke:none;fill-rule:evenodd;fill:rgb(86.666667%,13.72549%,10.588235%);fill-opacity:1;" d="M 31.703125 40.484375 L 31.050781 43.941406 L 31.597656 45.714844 L 30.347656 46.105469 L 29.792969 44.324219 L 27.230469 41.890625 L 28.707031 41.433594 L 30.039062 42.863281 L 30.28125 40.929688 Z M 31.703125 40.484375 "/>
<path style=" stroke:none;fill-rule:evenodd;fill:rgb(86.666667%,13.72549%,10.588235%);fill-opacity:1;" d="M 32.859375 39.847656 L 35.949219 37.730469 L 36.609375 38.6875 L 34.585938 40.074219 L 34.933594 40.589844 L 36.789062 39.3125 L 37.449219 40.269531 L 35.59375 41.546875 L 36.066406 42.246094 L 38.183594 40.792969 L 38.835938 41.75 L 35.660156 43.933594 Z M 32.859375 39.847656 "/>
<path style=" stroke:none;fill-rule:evenodd;fill:rgb(86.666667%,13.72549%,10.588235%);fill-opacity:1;" d="M 38.761719 36.304688 L 39.472656 36.835938 L 40.042969 36.0625 C 40.308594 35.707031 40.285156 35.53125 40.019531 35.335938 C 39.875 35.222656 39.640625 35.128906 39.375 35.480469 Z M 41.820312 38.566406 L 41.046875 39.609375 L 37.070312 36.667969 C 37.691406 35.835938 39.117188 33.027344 40.726562 34.222656 C 41.078125 34.464844 41.292969 34.859375 41.296875 35.289062 C 41.730469 35.15625 42.136719 35.425781 42.472656 35.675781 L 42.800781 35.917969 C 42.851562 35.941406 43.015625 36.066406 43.082031 36.066406 L 43.226562 35.976562 L 43.566406 36.226562 L 42.746094 37.332031 C 42.394531 37.203125 42.066406 37.019531 41.769531 36.792969 C 41.296875 36.441406 41.203125 36.382812 40.867188 36.84375 L 40.371094 37.5 Z M 41.820312 38.566406 "/>
<path style=" stroke:none;fill-rule:evenodd;fill:rgb(86.666667%,13.72549%,10.588235%);fill-opacity:1;" d="M 9.089844 36.53125 L 9.808594 35.636719 L 8.699219 35.953125 Z M 8.363281 37.488281 L 7.542969 36.292969 L 6.582031 36.554688 L 5.792969 35.40625 L 10.886719 34.09375 L 11.652344 35.214844 L 8.546875 39.441406 L 7.746094 38.257812 Z M 8.363281 37.488281 "/>
<path style=" stroke:none;fill-rule:evenodd;fill:rgb(86.666667%,13.72549%,10.588235%);fill-opacity:1;" d="M 45.175781 15.511719 L 44.882812 15.429688 C 44.4375 15.320312 44.535156 15.34375 44.292969 15.285156 C 42.964844 15.945312 42.078125 16.664062 40.664062 17.148438 C 41.125 17.457031 41.929688 17.925781 42.507812 17.636719 C 43.742188 17.015625 44.632812 16.515625 45.828125 15.8125 C 45.621094 15.691406 45.402344 15.589844 45.175781 15.511719 M 41.402344 15.917969 C 42.628906 15.039062 43.113281 14.628906 44.304688 13.703125 C 43.796875 13.542969 43.277344 13.425781 42.75 13.347656 C 42.027344 13.90625 41.828125 14.148438 41.117188 14.734375 C 40.996094 14.574219 40.519531 13.902344 40.390625 13.691406 C 40.828125 13.179688 41.539062 12.328125 41.539062 12.328125 L 40.207031 12.160156 L 39.742188 12.84375 C 39.589844 12.738281 39.519531 12.527344 39.402344 12.394531 C 39.832031 12.089844 40.191406 11.703125 40.460938 11.253906 L 39.046875 11.210938 C 38.832031 11.746094 38.617188 11.679688 38.261719 11.230469 C 38.84375 10.835938 38.8125 10.699219 39.160156 10.074219 L 37.765625 10.140625 L 37.484375 10.515625 L 37.285156 10.355469 C 33.894531 7.597656 30.539062 6.167969 25.417969 5.890625 C 25.402344 5.03125 25.40625 3.617188 25.40625 2.558594 L 25.40625 2.09375 C 25.140625 2.246094 24.890625 2.414062 24.652344 2.605469 C 24.214844 2.953125 24.410156 2.792969 24.183594 3.105469 C 24.1875 4.136719 24.253906 5.261719 24.292969 6.273438 C 24.339844 7.28125 24.980469 7.226562 25.699219 7.265625 C 30.71875 7.632812 33.355469 9.0625 36.183594 11.222656 C 36.359375 11.414062 36.636719 11.488281 36.886719 11.40625 C 36.871094 11.4375 36.785156 11.75 36.894531 11.832031 C 37.003906 11.914062 37.667969 12.554688 37.75 12.648438 C 37.859375 12.769531 38.042969 12.738281 38.152344 12.734375 C 38.066406 12.800781 38.074219 12.988281 38.191406 13.113281 C 38.304688 13.242188 38.722656 13.753906 38.832031 13.902344 C 38.9375 14.007812 39.085938 14.0625 39.234375 14.050781 C 39.167969 14.152344 39.167969 14.289062 39.234375 14.390625 C 39.332031 14.53125 39.953125 15.457031 40.144531 15.765625 C 40.460938 16.261719 40.730469 16.394531 41.402344 15.917969 M 22.359375 4.191406 C 22.121094 4.652344 21.777344 4.894531 21.601562 5.390625 C 21.8125 5.589844 21.980469 5.828125 22.09375 6.09375 C 16.070312 7.253906 12.382812 9.832031 9.058594 14.433594 C 8.527344 14.320312 7.980469 14.324219 7.453125 14.449219 C 7.667969 14.90625 7.910156 15.355469 8.175781 15.789062 C 8.527344 15.667969 8.898438 15.632812 9.265625 15.6875 C 9.699219 16.429688 9.714844 17.324219 8.859375 17.691406 L 8.628906 17.78125 C 8.496094 17.828125 8.402344 17.9375 8.375 18.074219 C 8.324219 18.335938 8.613281 18.425781 8.804688 18.457031 C 10.765625 18.671875 11.375 16.347656 10.222656 15.160156 C 12.242188 12.117188 15.984375 8.394531 22.824219 7.378906 C 23.277344 7.296875 23.21875 6.171875 23.167969 5.660156 C 23.042969 4.445312 23.222656 5.039062 22.363281 4.191406 "/>
<path style=" stroke:none;fill-rule:evenodd;fill:rgb(86.666667%,13.72549%,10.588235%);fill-opacity:1;" d="M 17.496094 11.003906 L 16.417969 10.886719 C 16.480469 10.578125 16.578125 10.277344 16.707031 9.988281 L 17.394531 10.070312 L 17.546875 9.660156 C 17.90625 9.671875 18.265625 9.71875 18.621094 9.796875 L 18.359375 10.675781 C 18.121094 10.636719 17.894531 10.597656 17.652344 10.574219 Z M 17.496094 11.003906 "/>
</g>
</svg>
